<svg xmlns="http://www.w3.org/2000/svg" xmlns:xlink="http://www.w3.org/1999/xlink" width="882.346" height="778.999" xmlns:v="https://vecta.io/nano"><style><![CDATA[.B{fill:#e6e6e6}.C{fill:#ccc}.D{fill:#3f3d56}.E{fill:#6c63ff}.F{fill:#2f2e41}]]></style><g class="B"><path d="M342.362 20.06l3.47-5.362c-1.029-2.842-2.217-5.624-3.56-8.333l-2.244 1.812 1.776-2.745L338.78 0s-6.958 10.965-9.283 22.575l4.452 6.881-4.929-3.981a32.52 32.52 0 0 0-.27 4.078c0 13.75 4.491 24.896 10.03 24.896s10.03-11.146 10.03-24.896a42.82 42.82 0 0 0-2.295-12.847z"/><use xlink:href="#B"/><path d="M369.201 85.184c-14.481.926-30.26-.054-47.046 0V46.752c14.791 2.303 30.565 2.066 47.046 0zm103.601 29.968l2.263-3.497c-.671-1.854-1.446-3.668-2.321-5.434l-1.463 1.182 1.158-1.79-1.973-3.543a50.24 50.24 0 0 0-6.054 14.722l2.903 4.487-3.214-2.596a21.21 21.21 0 0 0-.176 2.66c0 8.967 2.928 16.236 6.541 16.236s6.541-7.269 6.541-16.236c-.068-2.853-.572-5.678-1.496-8.378z"/><path d="M488.817 122.925l4.073-.873a52.42 52.42 0 0 0 2.201-5.484l-1.87-.199 2.085-.447 1.11-3.9a50.24 50.24 0 0 0-14.691 6.129l-1.12 5.226-.437-4.109a21.21 21.21 0 0 0-2.005 1.756c-6.34 6.34-9.41 13.551-6.855 16.105s9.765-.515 16.105-6.855c1.969-2.065 3.61-4.42 4.866-6.982z"/><path d="M490.304 157.622c-9.444.604-19.734-.035-30.681 0v-25.063c10.177 1.426 20.503 1.426 30.681 0zm-5.831 74.276c-8.339.533-17.425-.031-27.091 0v-22.131a97.63 97.63 0 0 0 27.091 0z"/><path d="M167.508 82.481h364.547v10.183H167.508zm0 72.299h364.547v10.183H167.508zm0 72.298h364.547v10.183H167.508z"/><circle cx="470.958" cy="197.548" r="20.366"/></g><circle cx="470.958" cy="197.548" r="16.293" fill="#fff"/><g class="B"><circle cx="470.958" cy="197.548" r="4.073"/><path d="M485.214 196.53v2.037h-16.293v-2.037z"/><path d="M471.976 199.584h-2.037v-16.293h2.037zm-132.251-94.48H353.2v53.339h-13.475z"/></g><path d="M339.725 113.526H353.2v6.176h-13.475zm0 26.95H353.2v6.176h-13.475z" class="C"/><path d="M318.951 105.104h13.475v53.339h-13.475z" class="B"/><path d="M318.951 113.526h13.475v6.176h-13.475zm0 26.95h13.475v6.176h-13.475z" class="C"/><path d="M352.735 110.862l12.076-5.979 23.666 47.801-12.076 5.979z" class="B"/><g class="C"><use xlink:href="#C"/><use xlink:href="#C" x="11.957" y="24.152"/></g><path d="M219.567 177.403h13.475v53.339h-13.475z" class="B"/><path d="M219.567 185.825h13.475v6.176h-13.475zm0 26.95h13.475v6.176h-13.475z" class="C"/><path d="M198.793 177.403h13.475v53.339h-13.475z" class="B"/><path d="M198.793 185.825h13.475v6.176h-13.475zm0 26.95h13.475v6.176h-13.475z" class="C"/><path d="M232.577 183.161l12.076-5.979 23.666 47.801-12.076 5.979z" class="B"/><g class="C"><use xlink:href="#C" x="-120.158" y="72.298"/><use xlink:href="#C" x="-108.201" y="96.451"/></g><path d="M345.835 177.403h13.475v53.339h-13.475z" class="B"/><path d="M345.835 185.825h13.475v6.176h-13.475zm0 26.95h13.475v6.176h-13.475z" class="C"/><path d="M325.061 177.403h13.475v53.339h-13.475z" class="B"/><path d="M325.061 185.825h13.475v6.176h-13.475zm0 26.95h13.475v6.176h-13.475z" class="C"/><path d="M358.845 183.161l12.076-5.979 23.666 47.801-12.076 5.979z" class="B"/><g class="C"><use xlink:href="#C" x="6.109" y="72.298"/><use xlink:href="#C" x="18.067" y="96.451"/></g><path d="M449.987 32.646h53.556v53.556h-53.556z" class="B"/><path d="M460.699 43.357h32.134V75.49h-32.134z" class="C"/><g class="B"><path d="M470 54.143l6.814 11.801 6.813 11.801H470h-13.627l6.814-11.801L470 54.143z"/><path d="M481.839 56.398l6.814 11.801L495.466 80h-13.627-13.627l6.814-11.801 6.813-11.801z"/><circle cx="486.631" cy="48.994" r="3.946"/><path d="M179.123 32.646h53.556v53.556h-53.556z"/></g><path d="M189.834 43.357h32.134V75.49h-32.134z" class="C"/><g class="B"><path d="M199.136 54.143l6.813 11.801 6.814 11.801h-13.627-13.627l6.813-11.801 6.814-11.801z"/><path d="M210.975 56.398l6.813 11.801L224.601 80h-13.626-13.627l6.813-11.801 6.814-11.801z"/><circle cx="215.766" cy="48.994" r="3.946"/></g><g class="E"><path d="M71.497 397.845l3.47-5.362c-1.029-2.842-2.217-5.624-3.56-8.333l-2.244 1.812 1.776-2.745-3.025-5.432s-6.958 10.965-9.283 22.575l4.452 6.881-4.929-3.981c-.176 1.352-.266 2.714-.27 4.078 0 13.75 4.491 24.896 10.03 24.896s10.03-11.146 10.03-24.896a42.82 42.82 0 0 0-2.295-12.847z"/><use xlink:href="#B" x="-270.865" y="377.785"/></g><path d="M98.336 462.969c-14.481.926-30.26-.054-47.046 0v-38.432c14.791 2.303 30.565 2.066 47.046 0z" class="D"/><g class="B"><path d="M500.998 475.031h195.511v253.554H500.998zM92.664 488.269h10.183v240.316H92.664z"/><path d="M0 457.72h696.509v20.366H0z"/><path d="M87.573 478.086h20.366v20.366H87.573z"/></g><g class="D"><path d="M614.155 489.796l-1.146 4.583h-28.512l-1.718-4.583h-72.617v46.842h177.182v-46.842h-73.189z"/><use xlink:href="#D"/><use xlink:href="#D" y="59.061"/><use xlink:href="#D" y="118.122"/></g><g class="B"><path d="M377.785 454.665h-60.079l2.036-26.475h56.006l2.037 26.475z"/><path d="M314.651 451.611h67.207v6.11h-67.207z"/></g><path d="M462.812 257.627H233.188a6.11 6.11 0 0 0-6.11 6.11v140.015h241.843V263.737a6.11 6.11 0 0 0-6.11-6.11z" class="D"/><path d="M227.078 403.751v22.911a6.11 6.11 0 0 0 6.11 6.11h229.624a6.11 6.11 0 0 0 6.11-6.11v-22.911z" class="B"/><path fill="#fff" d="M239.298 270.355h217.914V392.55H239.298z"/><g class="D"><circle cx="348.254" cy="418.007" r="6.11"/><path d="M865.035 727.057c-22.254 1.424-46.502-.083-72.298 0v-59.061c22.731 3.539 46.971 3.175 72.298 0z"/><path d="M831.432 673.3h-6.11l2.037-119.351h2.036l2.037 119.351zm27.494.807h-6.11l2.037-119.352h2.036l2.037 119.352zm-51.933 0h-6.11l2.037-119.352h2.036l2.037 119.352z"/></g><use xlink:href="#E" class="B"/><g class="E"><use xlink:href="#E" x="27.494" y="2.037"/><path d="M812.085 479.614l9.863-15.242c-2.925-8.08-6.303-15.988-10.119-23.687l-6.378 5.151 5.05-7.804c-4.812-9.473-8.599-15.442-8.599-15.442s-19.78 31.17-26.389 64.173l12.656 19.56-14.011-11.317a92.45 92.45 0 0 0-.769 11.593c0 39.086 12.765 70.771 28.512 70.771s28.512-31.685 28.512-70.771c0-12.117-2.741-24.794-6.523-36.521z"/></g><path d="M309.964 304.848h58.756v3.373h-58.756z" class="D"/><path d="M309.964 317.151h90.732v3.373h-90.732zm0 11.591h73.945v3.373h-73.945z" class="E"/><path d="M309.964 340.29h43.168v3.373h-43.168zm0 11.547h65.151v3.373h-65.151zm-26.78-48.188h7.195v7.195h-7.195z" class="D"/><path d="M283.184 315.24h7.195v7.195h-7.195zm0 11.591h7.195v7.195h-7.195z" class="E"/><path d="M283.184 338.423h7.195v7.195h-7.195zm0 11.591h7.195v7.195h-7.195z" class="D"/><path d="M447.115 298.463h-30.833a107.84 107.84 0 0 1 0-36.763h30.833a66.15 66.15 0 0 0 0 36.763z" class="E"/><path d="M222.764 372.144l-12.685-3.092c-9.802.012-19.091-4.379-25.303-11.962s-8.689-17.554-6.748-27.162h0c-.03-23.574 19.057-42.709 42.631-42.738h0c23.574-.03 42.709 19.057 42.738 42.631h0c7.192 25.028-15.333 48.49-40.634 42.323z" class="F"/><g fill="#ffb8b8"><circle cx="236.62" cy="345.243" r="31.364"/><path d="M216.165 361.607s-9.545 32.727-15 35.455 43.636 6.818 43.636 6.818-1.364-31.364 1.364-34.091-30-8.182-30-8.182z"/></g><g class="F"><path d="M265.256 563.426s61.364-5.455 69.546 15-5.455 141.818-5.455 141.818h-25.909v-99.546s-110.472-31.402-110.472-42.311 72.291-14.962 72.291-14.962z"/><use xlink:href="#F"/><path d="M231.165 563.426s61.364-5.455 69.546 15-5.455 141.818-5.455 141.818h-25.909v-99.546s-78.418-18.164-78.418-29.073c0-5.125-5.343-31.171 4.073-36.658 10.628-6.193 36.163 8.459 36.163 8.459z"/><use xlink:href="#F" x="-34.091"/></g><path d="M202.529 392.971l40.98 4.454c12.974 1.41 23.571 10.999 26.269 23.767l15.933 75.416s5.455 75-5.455 79.091-25.909-16.364-46.364-13.636-47.046 8.864-47.046 8.864l-4.773-145.228c-1.1-21.951 20.455-32.727 20.455-32.727z" fill="#575a89"/><path d="M299.601 567.322l16.824 9.908s30.183-4.331 29.241 6.278-33.889 8.559-33.889 8.559l-20.275-12.493z" fill="#ffb8b8"/><g class="F"><circle cx="175.743" cy="299.475" r="20.26"/><path d="M194.436 288.584a20.25 20.25 0 0 0-24.247-19.836 20.25 20.25 0 1 1 12.63 38.164c7.096-3.343 11.622-10.484 11.616-18.329zm17.381 11.49l27.313-5.029 21.005 13.165c10.545 6.609 16.278 18.753 14.678 31.095l-21.037-5.332-4.711-11.812-5.61 9.196-29.334 37.75-16.47-10.488-14.683-23.009z"/></g><path d="M234.309 404.571l13.636-6.818s28.636 4.091 34.091 23.182 30 151.364 30 151.364l-23.182 10.909-32.727-80.455z" fill="#575a89"/><path opacity=".2" d="M245.917 458.23l13.648 52.975 24.202 59.496-.839 2.06-28.865-60.562-8.146-53.969z"/><path d="M144.084 750.379l-4.813-1.658 46.625-138.49 6.74 2.322-48.552 137.826zm178.207 0l4.814-1.658-46.626-138.49-6.739 2.322 48.551 137.826zm-98.521 28.602l5.091.018 1.582-161.892-7.128-.025.455 161.899z" class="D"/><path d="M132.3 528.856l13.966 56.445c3.986 16.108 16.544 28.697 32.642 32.721h0a238.26 238.26 0 0 0 118.547-.764l20.851-5.499c12.116-3.195 21.227-13.601 22.089-26.101.349-4.419-.451-8.854-2.323-12.872q-.122-.26-.246-.515c-5.542-11.385-16.942-18.756-29.598-19.138l-22.089-.713-80.445-35.64s-27.667-14.053-50.412-15.626c-15.021-1.039-26.599 13.086-22.983 27.702z" class="E"/><path d="M543.257 351.309h79.426v107.939h-79.426z" class="B"/><path fill="#fff" d="M552.421 363.764h61.097v83.03h-61.097z"/><g class="D"><path d="M576.467 385.492h29.602v3.373h-29.602zm-16.597-1.867h7.195v7.195h-7.195zm16.597 16.123h29.602v3.373h-29.602zm-16.597-1.867h7.195v7.195h-7.195zm16.597 16.123h29.602v3.373h-29.602zm-16.597-1.867h7.195v7.195h-7.195z"/><rect x="579.915" y="354.364" width="6.11" height="6.11" rx="3.055"/></g><defs ><path id="B" d="M366.92 31.98l6.245-1.338c1.282-2.737 2.409-5.545 3.375-8.409l-2.868-.305 3.197-.685 1.702-5.98s-12.674 2.833-22.527 9.399l-1.717 8.014-.67-6.3c-1.08.832-2.107 1.731-3.075 2.693-9.722 9.722-14.429 20.779-10.512 24.696s14.974-.789 24.696-10.512a42.82 42.82 0 0 0 7.462-10.707z"/><path id="C" d="M356.472 118.41l12.076-5.979 2.74 5.535-12.076 5.979z"/><path id="D" d="M614.155 548.857l-1.146 4.582h-28.512l-1.718-4.582h-72.617v46.841h177.182v-46.841h-73.189z"/><path id="E" d="M836.523 477.577l9.863-15.242c-2.925-8.08-6.303-15.988-10.119-23.687l-6.378 5.151 5.05-7.804c-4.813-9.473-8.599-15.442-8.599-15.442s-19.78 31.17-26.389 64.173l12.656 19.56-14.011-11.317a92.45 92.45 0 0 0-.769 11.593c0 39.086 12.765 70.771 28.512 70.771s28.512-31.685 28.512-70.771c0-12.117-2.741-24.794-6.523-36.521z"/><path id="F" d="M325.256 714.789l13.636 5.455s16.364-1.364 9.545 10.909c-3.954 7.217-10.982 12.237-19.091 13.636 0 0-25.909 9.545-27.273 0s6.818-28.636 6.818-28.636z"/></defs></svg>