<svg xmlns="http://www.w3.org/2000/svg" width="803" height="617" xmlns:v="https://vecta.io/nano"><style><![CDATA[.B{fill:#667eea}.C{fill:#3f3d56}.D{fill:#f0f0f0}.E{fill:#2f2e41}.F{fill:#ffb8b8}]]></style><path d="M184.898 427l62.171-97.769-139.234-88.537-71.904 113.075L151.095 427h33.803z" class="D"/><path d="M273 457.5H119v-31h154zm-152-2h150v-27H121z" class="C"/><g class="B"><circle cx="254" cy="442" r="10"/><circle cx="226" cy="442" r="10"/><circle cx="198" cy="442" r="10"/><circle cx="170" cy="442" r="10"/><circle cx="142" cy="442" r="10"/></g><path d="M456 113V37h38V0H308v186h159v-18.186c0-6.846 2.72-13.412 7.561-18.254S485.968 142 492.814 142H494v-29z" class="D"/><path d="M538 480h124v26H538z" class="B"/><path d="M507 352h182v24H507z" class="D"/><g class="C"><path d="M0 615h778v2H0z"/><path d="M720.186 617H492.814A26.85 26.85 0 0 1 466 590.186V167.814c.017-14.802 12.012-26.798 26.814-26.814h227.371A26.85 26.85 0 0 1 747 167.814v422.371A26.85 26.85 0 0 1 720.186 617zM492.814 143c-13.698.016-24.799 11.116-24.814 24.814v422.371c.016 13.698 11.116 24.799 24.814 24.814h227.371c13.698-.016 24.799-11.116 24.814-24.814V167.814c-.016-13.698-11.116-24.799-24.814-24.814zm86.686 18a6 6 0 1 1 6-6 6.01 6.01 0 0 1-6 6zm0-10a4 4 0 1 0 4 4c-.002-2.208-1.792-3.998-4-4zm15 3h44v2h-44z"/></g><path d="M729 170v80c-44.182-.002-79.998-35.818-80-80z" class="B"/><path d="M730 590H483V169h247zm-245-2h243V171H485z" class="C"/><circle cx="671" cy="218" r="27" opacity=".1"/><circle cx="667" cy="221" r="27" class="B"/><path d="M494 186h38v14h-38zm21 133h38v14h-38zm184 52H515v-26h184zm-182-2h180v-22H517z" class="C"/><path d="M507 428h182v24H507z" class="D"/><path d="M515 395h38v14h-38zm184 52H515v-26h184zm-182-2h180v-22H517zm153 55H544v-28h126zm-124-2h122v-24H546z" class="C"/><path d="M694 361a10 10 0 0 1-17.71 6.37l-.01-.01a10 10 0 0 1 9.054-16.27 10 10 0 0 1 8.376 7.54A9.86 9.86 0 0 1 694 361z" class="B"/><path d="M694 361a10 10 0 0 1-17.71 6.37l-.01-.01A10.23 10.23 0 0 1 676 365a10 10 0 0 1 17.71-6.37A9.86 9.86 0 0 1 694 361z" opacity=".1"/><g class="B"><circle cx="688" cy="367" r="10"/><path d="M694 437a10 10 0 0 1-17.71 6.37l-.01-.01a10 10 0 0 1 9.054-16.27 10 10 0 0 1 8.376 7.54A9.86 9.86 0 0 1 694 437z"/></g><path d="M694 437a10 10 0 0 1-17.71 6.37l-.01-.01A10.23 10.23 0 0 1 676 441a10 10 0 0 1 17.71-6.37A9.86 9.86 0 0 1 694 437z" opacity=".1"/><circle cx="688" cy="443" r="10" class="B"/><path d="M468 48h52v52h-52z" class="D"/><path d="M671 86c-6.627 0-12-5.373-12-12s5.373-12 12-12 12 5.373 12 12c-.007 6.624-5.376 11.993-12 12zm0-22a10 10 0 1 0 0 20 10 10 0 0 0 10-10c-.006-5.52-4.48-9.994-10-10zM407 253h-26v-26h26zm-24-2h22v-22h-22zm420 196h-26v-26h26zm-24-2h22v-22h-22z" class="C"/><path d="M290.003 272.666l4.462 2.403 15.182 8.183 24.51 13.206 14.284-26.501c2.717-5.029 3.322-10.932 1.682-16.408s-5.391-10.074-10.426-12.781a28.59 28.59 0 0 0-33.381 4.529l-.007.007c-2.149 2.064-3.963 4.451-5.375 7.075z" class="E"/><path d="M356.9 542.937l-2.994 32.939-11.23 1.497-7.486-37.431 21.71 2.995z" class="F"/><path d="M339.682 577.373s14.224-7.486 17.218-1.497c0 0-2.246 17.967 6.738 20.213s12.727 17.967 0 19.464-20.962-2.995-25.453-2.995 0-15.721 0-15.721z" class="E"/><path d="M266.316 542.937l2.995 32.939 11.229 1.497 7.486-37.431-21.71 2.995z" class="F"/><path d="M283.534 577.373s-14.224-7.486-17.218-1.497c0 0 2.246 17.967-6.738 20.213s-12.727 17.967 0 19.464 20.962-2.995 25.453-2.995 0-15.721 0-15.721z" class="E"/><g class="F"><circle cx="327.704" cy="259.206" r="19.464"/><path d="M265.567 297.386l15.721 24.705 18.716-1.497 30.694 2.246s2.897-5.794 5.263-11.432c1.295-2.815 2.291-5.758 2.972-8.781.749-5.24-9.732-10.481-9.732-10.481s-.412-.075-1.1-.24a43.05 43.05 0 0 1-3.863-1.101c-3.481-1.183-7.666-3.189-8.512-6.146-1.497-5.24 9.732-12.727 9.732-12.727l-13.475-12.727s-11.971 16.627-26.509 20.415c-.843.223-1.698.398-2.56.524l-.127.022c-15.721 2.246-17.218 17.218-17.218 17.218z"/><path d="M273.802 290.649l-8.235 6.738s-6.738 32.191-4.492 41.175-.749 17.218-.749 18.716-6.738 57.644-6.738 57.644-13.475 29.945.749 26.951 8.984-32.94 8.984-32.94l17.218-52.404V312.36zm59.142 5.989l5.989 4.492 2.995 62.885 22.459 53.901s16.47 26.202 5.989 26.951-17.218-26.951-17.218-26.951l-20.213-51.655-2.995-50.158z"/></g><g class="E"><path d="M295.513 301.129s14.973 10.481 38.929 6.738c0 0 6.738 13.475 2.995 20.962s4.492 25.453 5.989 27.699 18.716 48.661 24.705 98.819 22.459 84.595 8.235 89.087-43.42 9.732-46.415 5.24-7.486-116.038-7.486-116.038l-8.235 42.672s11.229 72.617 2.995 74.114-59.89-2.995-58.393-11.978 16.47-56.147 16.47-56.147-.749-94.327 14.224-112.294c0 0 5.989-9.732-2.246-22.459s-7.486-32.94-7.486-32.94 5.989 0 15.721-13.475z"/><path d="M282.913 280.145l12.6 27.722 2.994-1.497-13.034-26.749-2.56.524zm41.324 10.661l9.455 20.804 2.268-.202-.771-3.541-7.09-15.961-3.863-1.101zm-29.773-15.736c1.472 4.735 5.638 8.127 10.574 8.607s9.678-2.044 12.035-6.406c-9.47-12.382-1.348-20.161 14.037-26.045a12.31 12.31 0 0 0-1.325-13.655 28.69 28.69 0 0 0-23.47 7.726l-.007.007-10.93 20.273a12.26 12.26 0 0 0-.913 9.493z"/></g><ellipse cx="316.1" cy="261.452" rx="2.62" ry="4.492" class="F"/><path d="M323.908 254.123l22.504 10.196 4.125-9.103c-.711-3.327-2.199-6.439-4.342-9.081l-15.489-7.015z" class="E"/><circle cx="378" cy="445" r="10" class="B"/><circle cx="56.957" cy="507.911" r="6.535" fill="#ff6584"/><g class="C"><path d="M87.975 541.973h2v74.411h-2z"/><circle cx="88.975" cy="541.972" r="10.523"/><path d="M88.975 587.834s-1.503-32.332-32.32-28.574"/></g></svg>