<svg xmlns="http://www.w3.org/2000/svg" xmlns:xlink="http://www.w3.org/1999/xlink" width="1039" height="564.4" xmlns:v="https://vecta.io/nano"><style><![CDATA[.B{fill:#9f616a}.C{stroke:#3f3d56}.D{stroke-width:2}.E{fill:#667eea}.F{fill:#2f2e41}.G{stroke-miterlimit:10}]]></style><path fill="#3f3d56" d="M186 130.132h667v432.625H186z"/><g fill="none" class="C D"><circle cx="875.352" cy="206.263" r="14.756"/><circle cx="134.352" cy="145.263" r="14.756"/></g><g class="E"><use xlink:href="#B" opacity=".3"/><use xlink:href="#B" x="140.112"/><use xlink:href="#B" x="280.224"/><use xlink:href="#B" x="-140.112" y="120.815" opacity=".3"/><use xlink:href="#B" y="120.815"/><use xlink:href="#B" x="140.112" y="120.815" opacity=".3"/><use xlink:href="#B" x="280.224" y="120.815" opacity=".3"/></g><g fill="none" class="D G"><use xlink:href="#B" x="-128.366" y="-10.068" stroke="#f2f2f2"/><g class="C"><use xlink:href="#B" x="11.746" y="-10.068"/><use xlink:href="#B" x="151.858" y="-10.068"/><use xlink:href="#B" x="291.97" y="-10.068"/><use xlink:href="#B" x="-128.366" y="110.747"/><use xlink:href="#B" x="11.746" y="110.747"/><use xlink:href="#B" x="151.858" y="110.747"/><use xlink:href="#B" x="291.97" y="110.747"/></g></g><g class="E"><circle cx="201.941" cy="141.458" r="4.195"/><circle cx="214.526" cy="141.458" r="4.195"/><circle cx="227.111" cy="141.458" r="4.195"/></g><g fill="none" class="C D"><circle cx="201.941" cy="141.458" r="4.195"/><circle cx="214.526" cy="141.458" r="4.195"/><circle cx="227.111" cy="141.458" r="4.195"/></g><path fill="#f2f2f2" d="M178.441 0l-43.924 99.757H405L178.441 0z"/><circle cx="239.619" cy="27.263" r="14.756" fill="none" class="C D"/><circle cx="855" cy="465.757" r="42" class="E"/><use xlink:href="#C" class="B"/><use xlink:href="#C" opacity=".1"/><path d="M226.996 450.421l-.597 30.424-16.107 59.058-13.124-1.79s3.579-15.51 1.79-23.265 8.948-27.441 8.948-27.441l-9.545-44.145z" class="B"/><path d="M209.696 538.113s2.386.597 2.386 2.386 1.79 9.545 7.755 11.334 17.897 11.931 8.948 12.528-22.669-5.966-25.055-5.966-7.159-.597-8.352-2.386-1.79-17.897 0-18.493 14.317.597 14.317.597z" class="F"/><path d="M211.486 452.807l-19.09 34.003-47.724 47.127-6.562-11.931s14.914-22.072 15.51-24.459 16.703-13.124 16.703-13.124 13.124-22.072 10.738-31.617 29.231-11.334 29.231-11.334z" class="B"/><path d="M145.269 530.955v4.772c0 .597-13.124 14.914-11.931 17.3s5.966 8.948.597 9.545-9.545-4.176-9.545-10.141-1.193-26.248.597-26.845 11.931-1.79 13.124-5.369 7.159 10.738 7.159 10.738z" class="F"/><g class="B"><circle cx="177.781" cy="314.109" r="14.317"/><path d="M187.624 320.969s-.597 14.914 1.193 16.703-17.3.597-17.3.597 1.79-11.334-1.79-16.107 17.897-1.193 17.897-1.193z"/></g><path d="M312.203 383.125h-85.577v-85.577h85.577z" class="E"/><path d="M170.921 330.514s14.317 2.983 20.879 8.352 10.738 8.352 12.528 8.948 5.966 3.579 7.159 15.51.597 20.879 11.931 28.634 47.128 52.496 38.776 61.445-13.124 11.931-16.703 7.755-4.176-10.141-11.931-3.579-13.721 14.317-17.3 8.352-23.862-7.159-59.059-2.386-26.845-12.528-21.476-20.879 41.162-41.759 46.531-45.934-4.772-24.459-10.141-28.038-10.141-30.424-1.193-38.179z" class="F"/><use xlink:href="#C" x="-8.352" y="7.159" class="B"/><g class="F"><path d="M178.079 340.655s14.914 7.159 14.317 16.107 1.79 10.738-.597 12.528-15.51 10.738-17.3 5.966-11.931-29.231 3.579-34.6z"/><circle cx="155.338" cy="287.287" r="12.464"/><path d="M144.587 297.608c3.273 2.366 7.49 2.999 11.314 1.699s6.781-4.373 7.933-8.243c-.586 4.661-3.743 8.597-8.166 10.18s-9.36.545-12.771-2.685-4.716-8.104-3.376-12.606a12.46 12.46 0 0 0 5.066 11.656z"/><circle cx="169.429" cy="305.757" r="18.493"/></g><ellipse cx="184.045" cy="315.004" rx="2.088" ry="3.878" class="B"/><g fill="none" class="D G"><path stroke="#f2f2f2" d="M186 152.877h667"/><path d="M0 562.757h1039" class="C"/></g><defs ><path id="B" d="M394.909 216.548h85.577v85.577h-85.577z"/><path id="C" d="M197.169 362.131l1.79 10.141 25.055-11.931s22.669-14.317 18.493-4.176-16.703 12.528-16.703 12.528-26.845 23.862-32.81 20.283-9.545-23.265-9.545-23.265z"/></defs></svg>